<svg xmlns="http://www.w3.org/2000/svg" xmlns:xlink="http://www.w3.org/1999/xlink" data-v-decfdd8a="" version="1.0" width="236" height="88" preserveAspectRatio="xMidYMid meet" color-interpolation-filters="sRGB">   <g data-v-decfdd8a="" fill="#feffff" class="bordersvg b-d1" width="100%" height="100%"><polyline stroke="#feffff" stroke-width="3" fill-opacity="0" fill="#f58021" points="122.4749984741211,20 122.4749984741211,10 0,0 0,86.04000091552734 122.4749984741211,76.04000091552734 122.4749984741211,66.04000091552734"/> <g transform="translate(0,20)"><g><rect data-gra="graph-name-bg" stroke-width="2" class="i-icon-bg" x="0" y="0" width="244.9499969482422" height="46.040000915527344" fill-opacity="0"/> <!----> <!----> </g> <g transform="translate(10,3)"><g data-gra="path-name" fill-rule="" class="tp-name" opacity="1" transform="matrix(1,0,0,1,0,0)"><g transform="scale(1)"><g><path d="M30.64-9.79L35.31-5.17Q32.56-2.42 28.93-0.85 25.3 0.71 21.12 0.71L21.12 0.71Q17 0.71 13.34-0.85 9.68-2.42 6.96-5.14 4.24-7.87 2.67-11.52 1.1-15.18 1.1-19.3L1.1-19.3Q1.1-23.43 2.67-27.09 4.24-30.75 6.96-33.47 9.68-36.19 13.34-37.76 17-39.33 21.12-39.33L21.12-39.33Q25.3-39.33 28.93-37.76 32.56-36.19 35.31-33.44L35.31-33.44 30.64-28.77Q28.71-30.69 26.29-31.71 23.87-32.73 21.12-32.73L21.12-32.73Q18.43-32.73 16-31.71 13.59-30.69 11.66-28.77L11.66-28.77Q9.73-26.84 8.72-24.42 7.7-22 7.7-19.3L7.7-19.3Q7.7-16.61 8.72-14.16 9.73-11.71 11.66-9.79L11.66-9.79Q13.59-7.87 16-6.88 18.43-5.88 21.12-5.88L21.12-5.88Q23.87-5.88 26.29-6.88 28.71-7.87 30.64-9.79L30.64-9.79ZM44.38 0L37.78 0 37.78-27.5 44.38-27.5 44.38 0ZM37.78-31.9L37.78-38.5 44.38-38.5 44.38-31.9 37.78-31.9ZM62.09-28.27L62.09-28.27Q64.79-28.27 66.99-27.25 69.19-26.23 70.76-24.45 72.33-22.66 73.18-20.3 74.03-17.93 74.03-15.23L74.03-15.23 74.03 0 67.43 0 67.43-15.23Q67.43-17.98 65.5-19.8L65.5-19.8Q63.64-21.67 61-21.67L61-21.67Q58.3-21.67 56.43-19.8L56.43-19.8Q54.56-17.93 54.56-15.23L54.56-15.23 54.56 0 47.96 0 47.96-27.5 54.56-27.5 54.56-25.41Q56.05-26.68 57.92-27.47 59.79-28.27 62.09-28.27ZM105.16-10.45L98.23-10.45 83.82-10.45Q84.37-9.19 85.42-8.2L85.42-8.2Q86.57-7.04 88-6.46 89.43-5.88 91.03-5.88L91.03-5.88Q93.28-5.88 95.04-6.93L95.04-6.93 101.92-4.18Q99.94-1.87 97.13-0.58 94.33 0.71 91.03 0.71L91.03 0.71Q88 0.71 85.36-0.41 82.72-1.54 80.74-3.52 78.76-5.5 77.63-8.14 76.5-10.78 76.5-13.75L76.5-13.75Q76.5-16.77 77.63-19.41 78.76-22.05 80.74-24.04 82.72-26.02 85.36-27.14 88-28.27 91.03-28.27L91.03-28.27Q94.05-28.27 96.69-27.14 99.33-26.02 101.31-24.04 103.29-22.05 104.42-19.41 105.55-16.77 105.55-13.75L105.55-13.75Q105.55-11.99 105.16-10.45L105.16-10.45ZM91.03-21.67L91.03-21.67Q87.84-21.67 85.42-19.36L85.42-19.36Q84.37-18.32 83.82-17.05L83.82-17.05 98.23-17.05Q97.68-18.32 96.64-19.36L96.64-19.36Q94.33-21.67 91.03-21.67ZM139.92-38.55L139.92-38.55 147.13-38.55 147.13-0.06 140.53-0.06 140.53-27.34 127.82-7.7 115.17-27.34 115.17-0.06 108.57-0.06 108.57-38.55 115.77-38.55 127.82-19.86 139.92-38.55ZM172.59-27.55L179.19-27.55 179.19 0 172.59 0 172.59-13.75Q172.59-17.05 170.28-19.36L170.28-19.36Q167.97-21.67 164.67-21.67L164.67-21.67Q163.08-21.67 161.62-21.07 160.16-20.46 159.06-19.36L159.06-19.36Q156.75-17.05 156.75-13.75L156.75-13.75Q156.75-10.51 159.06-8.2L159.06-8.2Q160.16-7.04 161.62-6.46 163.08-5.88 164.67-5.88L164.67-5.88Q166.32-5.88 167.64-6.43L167.64-6.43 170.01-0.55Q167.48 0.71 164.12 0.71L164.12 0.71Q161.09 0.71 158.54-0.41 155.98-1.54 154.11-3.52 152.24-5.5 151.2-8.14 150.15-10.78 150.15-13.75L150.15-13.75Q150.15-16.77 151.2-19.41 152.24-22.05 154.11-24.04 155.98-26.02 158.54-27.14 161.09-28.27 164.12-28.27L164.12-28.27Q166.81-28.27 168.91-27.45 171-26.62 172.59-25.36L172.59-25.36 172.59-27.55ZM195.91-6.6L197.56 0 191.51 0Q189.64 0 187.99-0.71 186.34-1.43 185.13-2.67 183.92-3.9 183.21-5.55 182.49-7.21 182.49-9.07L182.49-9.07 182.49-33.05 189.09-34.7 189.09-24.2 192.94-24.2 194.59-17.6 189.09-17.6 189.09-9.07Q189.09-8.03 189.81-7.32 190.52-6.6 191.51-6.6L191.51-6.6 195.91-6.6ZM225.66-10.45L218.73-10.45 204.32-10.45Q204.88-9.19 205.92-8.2L205.92-8.2Q207.07-7.04 208.5-6.46 209.94-5.88 211.53-5.88L211.53-5.88Q213.78-5.88 215.54-6.93L215.54-6.93 222.42-4.18Q220.44-1.87 217.63-0.58 214.83 0.71 211.53 0.71L211.53 0.71Q208.5 0.71 205.87-0.41 203.22-1.54 201.25-3.52 199.26-5.5 198.14-8.14 197.01-10.78 197.01-13.75L197.01-13.75Q197.01-16.77 198.14-19.41 199.26-22.05 201.25-24.04 203.22-26.02 205.87-27.14 208.5-28.27 211.53-28.27L211.53-28.27Q214.56-28.27 217.19-27.14 219.84-26.02 221.81-24.04 223.79-22.05 224.92-19.41 226.05-16.77 226.05-13.75L226.05-13.75Q226.05-11.99 225.66-10.45L225.66-10.45ZM211.53-21.67L211.53-21.67Q208.34-21.67 205.92-19.36L205.92-19.36Q204.88-18.32 204.32-17.05L204.32-17.05 218.73-17.05Q218.19-18.32 217.14-19.36L217.14-19.36Q214.83-21.67 211.53-21.67Z" transform="translate(-1.100000023841858, 39.33000183105469)"/></g> <!----> <!----> <!----> <!----> <!----> <!----> <!----></g></g> <!----></g></g></g></svg>